<svg xmlns="http://www.w3.org/2000/svg" xmlns:xlink="http://www.w3.org/1999/xlink" width="600" height="400" viewBox="0 0 2400 1600">
<defs>
  <clipPath id="clip600">
    <rect x="0" y="0" width="2400" height="1600"></rect>
  </clipPath>
</defs>
<path clip-path="url(#clip600)" d="
M0 1600 L2400 1600 L2400 0 L0 0  Z
  " fill="#ffffff" fill-rule="evenodd" fill-opacity="1"></path>
<defs>
  <clipPath id="clip601">
    <rect x="480" y="0" width="1681" height="1600"></rect>
  </clipPath>
</defs>
<path clip-path="url(#clip600)" d="
M184.677 1486.45 L2352.76 1486.45 L2352.76 47.2441 L184.677 47.2441  Z
  " fill="#ffffff" fill-rule="evenodd" fill-opacity="1"></path>
<defs>
  <clipPath id="clip602">
    <rect x="184" y="47" width="2169" height="1440"></rect>
  </clipPath>
</defs>
<polyline clip-path="url(#clip602)" style="stroke:#000000; stroke-linecap:round; stroke-linejoin:round; stroke-width:2; stroke-opacity:0.1; fill:none" points="
  235.811,1486.45 235.811,47.2441 
  "></polyline>
<polyline clip-path="url(#clip602)" style="stroke:#000000; stroke-linecap:round; stroke-linejoin:round; stroke-width:2; stroke-opacity:0.1; fill:none" points="
  747.15,1486.45 747.15,47.2441 
  "></polyline>
<polyline clip-path="url(#clip602)" style="stroke:#000000; stroke-linecap:round; stroke-linejoin:round; stroke-width:2; stroke-opacity:0.1; fill:none" points="
  1258.49,1486.45 1258.49,47.2441 
  "></polyline>
<polyline clip-path="url(#clip602)" style="stroke:#000000; stroke-linecap:round; stroke-linejoin:round; stroke-width:2; stroke-opacity:0.1; fill:none" points="
  1769.83,1486.45 1769.83,47.2441 
  "></polyline>
<polyline clip-path="url(#clip602)" style="stroke:#000000; stroke-linecap:round; stroke-linejoin:round; stroke-width:2; stroke-opacity:0.1; fill:none" points="
  2281.17,1486.45 2281.17,47.2441 
  "></polyline>
<polyline clip-path="url(#clip600)" style="stroke:#000000; stroke-linecap:round; stroke-linejoin:round; stroke-width:4; stroke-opacity:1; fill:none" points="
  184.677,1486.45 2352.76,1486.45 
  "></polyline>
<polyline clip-path="url(#clip600)" style="stroke:#000000; stroke-linecap:round; stroke-linejoin:round; stroke-width:4; stroke-opacity:1; fill:none" points="
  235.811,1486.45 235.811,1467.55 
  "></polyline>
<polyline clip-path="url(#clip600)" style="stroke:#000000; stroke-linecap:round; stroke-linejoin:round; stroke-width:4; stroke-opacity:1; fill:none" points="
  747.15,1486.45 747.15,1467.55 
  "></polyline>
<polyline clip-path="url(#clip600)" style="stroke:#000000; stroke-linecap:round; stroke-linejoin:round; stroke-width:4; stroke-opacity:1; fill:none" points="
  1258.49,1486.45 1258.49,1467.55 
  "></polyline>
<polyline clip-path="url(#clip600)" style="stroke:#000000; stroke-linecap:round; stroke-linejoin:round; stroke-width:4; stroke-opacity:1; fill:none" points="
  1769.83,1486.45 1769.83,1467.55 
  "></polyline>
<polyline clip-path="url(#clip600)" style="stroke:#000000; stroke-linecap:round; stroke-linejoin:round; stroke-width:4; stroke-opacity:1; fill:none" points="
  2281.17,1486.45 2281.17,1467.55 
  "></polyline>
<path clip-path="url(#clip600)" d="M235.811 1517.37 Q232.2 1517.37 230.371 1520.93 Q228.565 1524.47 228.565 1531.6 Q228.565 1538.71 230.371 1542.27 Q232.2 1545.82 235.811 1545.82 Q239.445 1545.82 241.251 1542.27 Q243.079 1538.71 243.079 1531.6 Q243.079 1524.47 241.251 1520.93 Q239.445 1517.37 235.811 1517.37 M235.811 1513.66 Q241.621 1513.66 244.676 1518.27 Q247.755 1522.85 247.755 1531.6 Q247.755 1540.33 244.676 1544.94 Q241.621 1549.52 235.811 1549.52 Q230.001 1549.52 226.922 1544.94 Q223.866 1540.33 223.866 1531.6 Q223.866 1522.85 226.922 1518.27 Q230.001 1513.66 235.811 1513.66 Z" fill="#000000" fill-rule="evenodd" fill-opacity="1"></path><path clip-path="url(#clip600)" d="M721.849 1514.29 L740.206 1514.29 L740.206 1518.22 L726.132 1518.22 L726.132 1526.7 Q727.15 1526.35 728.169 1526.19 Q729.187 1526 730.206 1526 Q735.993 1526 739.372 1529.17 Q742.752 1532.34 742.752 1537.76 Q742.752 1543.34 739.28 1546.44 Q735.808 1549.52 729.488 1549.52 Q727.312 1549.52 725.044 1549.15 Q722.798 1548.78 720.391 1548.04 L720.391 1543.34 Q722.474 1544.47 724.697 1545.03 Q726.919 1545.58 729.396 1545.58 Q733.4 1545.58 735.738 1543.48 Q738.076 1541.37 738.076 1537.76 Q738.076 1534.15 735.738 1532.04 Q733.4 1529.94 729.396 1529.94 Q727.521 1529.94 725.646 1530.35 Q723.794 1530.77 721.849 1531.65 L721.849 1514.29 Z" fill="#000000" fill-rule="evenodd" fill-opacity="1"></path><path clip-path="url(#clip600)" d="M761.965 1517.37 Q758.354 1517.37 756.525 1520.93 Q754.72 1524.47 754.72 1531.6 Q754.72 1538.71 756.525 1542.27 Q758.354 1545.82 761.965 1545.82 Q765.599 1545.82 767.405 1542.27 Q769.233 1538.71 769.233 1531.6 Q769.233 1524.47 767.405 1520.93 Q765.599 1517.37 761.965 1517.37 M761.965 1513.66 Q767.775 1513.66 770.831 1518.27 Q773.909 1522.85 773.909 1531.6 Q773.909 1540.33 770.831 1544.94 Q767.775 1549.52 761.965 1549.52 Q756.155 1549.52 753.076 1544.94 Q750.02 1540.33 750.02 1531.6 Q750.02 1522.85 753.076 1518.27 Q756.155 1513.66 761.965 1513.66 Z" fill="#000000" fill-rule="evenodd" fill-opacity="1"></path><path clip-path="url(#clip600)" d="M1218.1 1544.91 L1225.74 1544.91 L1225.74 1518.55 L1217.42 1520.21 L1217.42 1515.95 L1225.69 1514.29 L1230.36 1514.29 L1230.36 1544.91 L1238 1544.91 L1238 1548.85 L1218.1 1548.85 L1218.1 1544.91 Z" fill="#000000" fill-rule="evenodd" fill-opacity="1"></path><path clip-path="url(#clip600)" d="M1257.45 1517.37 Q1253.84 1517.37 1252.01 1520.93 Q1250.2 1524.47 1250.2 1531.6 Q1250.2 1538.71 1252.01 1542.27 Q1253.84 1545.82 1257.45 1545.82 Q1261.08 1545.82 1262.89 1542.27 Q1264.72 1538.71 1264.72 1531.6 Q1264.72 1524.47 1262.89 1520.93 Q1261.08 1517.37 1257.45 1517.37 M1257.45 1513.66 Q1263.26 1513.66 1266.31 1518.27 Q1269.39 1522.85 1269.39 1531.6 Q1269.39 1540.33 1266.31 1544.94 Q1263.26 1549.52 1257.45 1549.52 Q1251.64 1549.52 1248.56 1544.94 Q1245.5 1540.33 1245.5 1531.6 Q1245.5 1522.85 1248.56 1518.27 Q1251.64 1513.66 1257.45 1513.66 Z" fill="#000000" fill-rule="evenodd" fill-opacity="1"></path><path clip-path="url(#clip600)" d="M1287.61 1517.37 Q1284 1517.37 1282.17 1520.93 Q1280.36 1524.47 1280.36 1531.6 Q1280.36 1538.71 1282.17 1542.27 Q1284 1545.82 1287.61 1545.82 Q1291.24 1545.82 1293.05 1542.27 Q1294.88 1538.71 1294.88 1531.6 Q1294.88 1524.47 1293.05 1520.93 Q1291.24 1517.37 1287.61 1517.37 M1287.61 1513.66 Q1293.42 1513.66 1296.48 1518.27 Q1299.55 1522.85 1299.55 1531.6 Q1299.55 1540.33 1296.48 1544.94 Q1293.42 1549.52 1287.61 1549.52 Q1281.8 1549.52 1278.72 1544.94 Q1275.67 1540.33 1275.67 1531.6 Q1275.67 1522.85 1278.72 1518.27 Q1281.8 1513.66 1287.61 1513.66 Z" fill="#000000" fill-rule="evenodd" fill-opacity="1"></path><path clip-path="url(#clip600)" d="M1729.44 1544.91 L1737.07 1544.91 L1737.07 1518.55 L1728.76 1520.21 L1728.76 1515.95 L1737.03 1514.29 L1741.7 1514.29 L1741.7 1544.91 L1749.34 1544.91 L1749.34 1548.85 L1729.44 1548.85 L1729.44 1544.91 Z" fill="#000000" fill-rule="evenodd" fill-opacity="1"></path><path clip-path="url(#clip600)" d="M1758.83 1514.29 L1777.19 1514.29 L1777.19 1518.22 L1763.12 1518.22 L1763.12 1526.7 Q1764.13 1526.35 1765.15 1526.19 Q1766.17 1526 1767.19 1526 Q1772.98 1526 1776.36 1529.17 Q1779.74 1532.34 1779.74 1537.76 Q1779.74 1543.34 1776.26 1546.44 Q1772.79 1549.52 1766.47 1549.52 Q1764.3 1549.52 1762.03 1549.15 Q1759.78 1548.78 1757.38 1548.04 L1757.38 1543.34 Q1759.46 1544.47 1761.68 1545.03 Q1763.9 1545.58 1766.38 1545.58 Q1770.38 1545.58 1772.72 1543.48 Q1775.06 1541.37 1775.06 1537.76 Q1775.06 1534.15 1772.72 1532.04 Q1770.38 1529.94 1766.38 1529.94 Q1764.5 1529.94 1762.63 1530.35 Q1760.78 1530.77 1758.83 1531.65 L1758.83 1514.29 Z" fill="#000000" fill-rule="evenodd" fill-opacity="1"></path><path clip-path="url(#clip600)" d="M1798.95 1517.37 Q1795.34 1517.37 1793.51 1520.93 Q1791.7 1524.47 1791.7 1531.6 Q1791.7 1538.71 1793.51 1542.27 Q1795.34 1545.82 1798.95 1545.82 Q1802.58 1545.82 1804.39 1542.27 Q1806.22 1538.71 1806.22 1531.6 Q1806.22 1524.47 1804.39 1520.93 Q1802.58 1517.37 1798.95 1517.37 M1798.95 1513.66 Q1804.76 1513.66 1807.81 1518.27 Q1810.89 1522.85 1810.89 1531.6 Q1810.89 1540.33 1807.81 1544.94 Q1804.76 1549.52 1798.95 1549.52 Q1793.14 1549.52 1790.06 1544.94 Q1787 1540.33 1787 1531.6 Q1787 1522.85 1790.06 1518.27 Q1793.14 1513.66 1798.95 1513.66 Z" fill="#000000" fill-rule="evenodd" fill-opacity="1"></path><path clip-path="url(#clip600)" d="M2244.86 1544.91 L2261.18 1544.91 L2261.18 1548.85 L2239.24 1548.85 L2239.24 1544.91 Q2241.9 1542.16 2246.48 1537.53 Q2251.09 1532.88 2252.27 1531.53 Q2254.51 1529.01 2255.39 1527.27 Q2256.3 1525.51 2256.3 1523.82 Q2256.3 1521.07 2254.35 1519.33 Q2252.43 1517.6 2249.33 1517.6 Q2247.13 1517.6 2244.68 1518.36 Q2242.24 1519.13 2239.47 1520.68 L2239.47 1515.95 Q2242.29 1514.82 2244.74 1514.24 Q2247.2 1513.66 2249.24 1513.66 Q2254.61 1513.66 2257.8 1516.35 Q2260.99 1519.03 2260.99 1523.52 Q2260.99 1525.65 2260.18 1527.57 Q2259.4 1529.47 2257.29 1532.07 Q2256.71 1532.74 2253.61 1535.95 Q2250.51 1539.15 2244.86 1544.91 Z" fill="#000000" fill-rule="evenodd" fill-opacity="1"></path><path clip-path="url(#clip600)" d="M2280.99 1517.37 Q2277.38 1517.37 2275.55 1520.93 Q2273.75 1524.47 2273.75 1531.6 Q2273.75 1538.71 2275.55 1542.27 Q2277.38 1545.82 2280.99 1545.82 Q2284.63 1545.82 2286.43 1542.27 Q2288.26 1538.71 2288.26 1531.6 Q2288.26 1524.47 2286.43 1520.93 Q2284.63 1517.37 2280.99 1517.37 M2280.99 1513.66 Q2286.8 1513.66 2289.86 1518.27 Q2292.94 1522.85 2292.94 1531.6 Q2292.94 1540.33 2289.86 1544.94 Q2286.8 1549.52 2280.99 1549.52 Q2275.18 1549.52 2272.11 1544.94 Q2269.05 1540.33 2269.05 1531.6 Q2269.05 1522.85 2272.11 1518.27 Q2275.18 1513.66 2280.99 1513.66 Z" fill="#000000" fill-rule="evenodd" fill-opacity="1"></path><path clip-path="url(#clip600)" d="M2311.16 1517.37 Q2307.55 1517.37 2305.72 1520.93 Q2303.91 1524.47 2303.91 1531.6 Q2303.91 1538.71 2305.72 1542.27 Q2307.55 1545.82 2311.16 1545.82 Q2314.79 1545.82 2316.6 1542.27 Q2318.43 1538.71 2318.43 1531.6 Q2318.43 1524.47 2316.6 1520.93 Q2314.79 1517.37 2311.16 1517.37 M2311.16 1513.66 Q2316.97 1513.66 2320.02 1518.27 Q2323.1 1522.85 2323.1 1531.6 Q2323.1 1540.33 2320.02 1544.94 Q2316.97 1549.52 2311.16 1549.52 Q2305.35 1549.52 2302.27 1544.94 Q2299.21 1540.33 2299.21 1531.6 Q2299.21 1522.85 2302.27 1518.27 Q2305.35 1513.66 2311.16 1513.66 Z" fill="#000000" fill-rule="evenodd" fill-opacity="1"></path><polyline clip-path="url(#clip602)" style="stroke:#000000; stroke-linecap:round; stroke-linejoin:round; stroke-width:2; stroke-opacity:0.1; fill:none" points="
  184.677,1293.78 2352.76,1293.78 
  "></polyline>
<polyline clip-path="url(#clip602)" style="stroke:#000000; stroke-linecap:round; stroke-linejoin:round; stroke-width:2; stroke-opacity:0.1; fill:none" points="
  184.677,1092.81 2352.76,1092.81 
  "></polyline>
<polyline clip-path="url(#clip602)" style="stroke:#000000; stroke-linecap:round; stroke-linejoin:round; stroke-width:2; stroke-opacity:0.1; fill:none" points="
  184.677,891.844 2352.76,891.844 
  "></polyline>
<polyline clip-path="url(#clip602)" style="stroke:#000000; stroke-linecap:round; stroke-linejoin:round; stroke-width:2; stroke-opacity:0.1; fill:none" points="
  184.677,690.877 2352.76,690.877 
  "></polyline>
<polyline clip-path="url(#clip602)" style="stroke:#000000; stroke-linecap:round; stroke-linejoin:round; stroke-width:2; stroke-opacity:0.1; fill:none" points="
  184.677,489.91 2352.76,489.91 
  "></polyline>
<polyline clip-path="url(#clip602)" style="stroke:#000000; stroke-linecap:round; stroke-linejoin:round; stroke-width:2; stroke-opacity:0.1; fill:none" points="
  184.677,288.943 2352.76,288.943 
  "></polyline>
<polyline clip-path="url(#clip602)" style="stroke:#000000; stroke-linecap:round; stroke-linejoin:round; stroke-width:2; stroke-opacity:0.1; fill:none" points="
  184.677,87.9763 2352.76,87.9763 
  "></polyline>
<polyline clip-path="url(#clip600)" style="stroke:#000000; stroke-linecap:round; stroke-linejoin:round; stroke-width:4; stroke-opacity:1; fill:none" points="
  184.677,1486.45 184.677,47.2441 
  "></polyline>
<polyline clip-path="url(#clip600)" style="stroke:#000000; stroke-linecap:round; stroke-linejoin:round; stroke-width:4; stroke-opacity:1; fill:none" points="
  184.677,1293.78 203.574,1293.78 
  "></polyline>
<polyline clip-path="url(#clip600)" style="stroke:#000000; stroke-linecap:round; stroke-linejoin:round; stroke-width:4; stroke-opacity:1; fill:none" points="
  184.677,1092.81 203.574,1092.81 
  "></polyline>
<polyline clip-path="url(#clip600)" style="stroke:#000000; stroke-linecap:round; stroke-linejoin:round; stroke-width:4; stroke-opacity:1; fill:none" points="
  184.677,891.844 203.574,891.844 
  "></polyline>
<polyline clip-path="url(#clip600)" style="stroke:#000000; stroke-linecap:round; stroke-linejoin:round; stroke-width:4; stroke-opacity:1; fill:none" points="
  184.677,690.877 203.574,690.877 
  "></polyline>
<polyline clip-path="url(#clip600)" style="stroke:#000000; stroke-linecap:round; stroke-linejoin:round; stroke-width:4; stroke-opacity:1; fill:none" points="
  184.677,489.91 203.574,489.91 
  "></polyline>
<polyline clip-path="url(#clip600)" style="stroke:#000000; stroke-linecap:round; stroke-linejoin:round; stroke-width:4; stroke-opacity:1; fill:none" points="
  184.677,288.943 203.574,288.943 
  "></polyline>
<polyline clip-path="url(#clip600)" style="stroke:#000000; stroke-linecap:round; stroke-linejoin:round; stroke-width:4; stroke-opacity:1; fill:none" points="
  184.677,87.9763 203.574,87.9763 
  "></polyline>
<path clip-path="url(#clip600)" d="M51.6634 1307.12 L59.3023 1307.12 L59.3023 1280.76 L50.9921 1282.42 L50.9921 1278.16 L59.256 1276.5 L63.9319 1276.5 L63.9319 1307.12 L71.5707 1307.12 L71.5707 1311.06 L51.6634 1311.06 L51.6634 1307.12 Z" fill="#000000" fill-rule="evenodd" fill-opacity="1"></path><path clip-path="url(#clip600)" d="M93.8623 1280.57 L82.0568 1299.02 L93.8623 1299.02 L93.8623 1280.57 M92.6354 1276.5 L98.515 1276.5 L98.515 1299.02 L103.446 1299.02 L103.446 1302.91 L98.515 1302.91 L98.515 1311.06 L93.8623 1311.06 L93.8623 1302.91 L78.2605 1302.91 L78.2605 1298.4 L92.6354 1276.5 Z" fill="#000000" fill-rule="evenodd" fill-opacity="1"></path><path clip-path="url(#clip600)" d="M111.177 1305.18 L116.061 1305.18 L116.061 1311.06 L111.177 1311.06 L111.177 1305.18 Z" fill="#000000" fill-rule="evenodd" fill-opacity="1"></path><path clip-path="url(#clip600)" d="M139.094 1280.57 L127.288 1299.02 L139.094 1299.02 L139.094 1280.57 M137.867 1276.5 L143.746 1276.5 L143.746 1299.02 L148.677 1299.02 L148.677 1302.91 L143.746 1302.91 L143.746 1311.06 L139.094 1311.06 L139.094 1302.91 L123.492 1302.91 L123.492 1298.4 L137.867 1276.5 Z" fill="#000000" fill-rule="evenodd" fill-opacity="1"></path><path clip-path="url(#clip600)" d="M53.1449 1106.16 L60.7837 1106.16 L60.7837 1079.79 L52.4736 1081.46 L52.4736 1077.2 L60.7374 1075.53 L65.4133 1075.53 L65.4133 1106.16 L73.0522 1106.16 L73.0522 1110.09 L53.1449 1110.09 L53.1449 1106.16 Z" fill="#000000" fill-rule="evenodd" fill-opacity="1"></path><path clip-path="url(#clip600)" d="M95.3437 1079.6 L83.5382 1098.05 L95.3437 1098.05 L95.3437 1079.6 M94.1169 1075.53 L99.9965 1075.53 L99.9965 1098.05 L104.927 1098.05 L104.927 1101.94 L99.9965 1101.94 L99.9965 1110.09 L95.3437 1110.09 L95.3437 1101.94 L79.742 1101.94 L79.742 1097.43 L94.1169 1075.53 Z" fill="#000000" fill-rule="evenodd" fill-opacity="1"></path><path clip-path="url(#clip600)" d="M112.658 1104.21 L117.543 1104.21 L117.543 1110.09 L112.658 1110.09 L112.658 1104.21 Z" fill="#000000" fill-rule="evenodd" fill-opacity="1"></path><path clip-path="url(#clip600)" d="M127.774 1075.53 L146.131 1075.53 L146.131 1079.47 L132.057 1079.47 L132.057 1087.94 Q133.075 1087.59 134.094 1087.43 Q135.112 1087.24 136.131 1087.24 Q141.918 1087.24 145.297 1090.41 Q148.677 1093.59 148.677 1099 Q148.677 1104.58 145.205 1107.68 Q141.732 1110.76 135.413 1110.76 Q133.237 1110.76 130.969 1110.39 Q128.723 1110.02 126.316 1109.28 L126.316 1104.58 Q128.399 1105.72 130.621 1106.27 Q132.844 1106.83 135.32 1106.83 Q139.325 1106.83 141.663 1104.72 Q144.001 1102.61 144.001 1099 Q144.001 1095.39 141.663 1093.29 Q139.325 1091.18 135.32 1091.18 Q133.445 1091.18 131.57 1091.6 Q129.719 1092.01 127.774 1092.89 L127.774 1075.53 Z" fill="#000000" fill-rule="evenodd" fill-opacity="1"></path><path clip-path="url(#clip600)" d="M51.9875 905.189 L59.6263 905.189 L59.6263 878.823 L51.3162 880.49 L51.3162 876.23 L59.58 874.564 L64.2559 874.564 L64.2559 905.189 L71.8948 905.189 L71.8948 909.124 L51.9875 909.124 L51.9875 905.189 Z" fill="#000000" fill-rule="evenodd" fill-opacity="1"></path><path clip-path="url(#clip600)" d="M94.1863 878.638 L82.3808 897.087 L94.1863 897.087 L94.1863 878.638 M92.9595 874.564 L98.8391 874.564 L98.8391 897.087 L103.77 897.087 L103.77 900.976 L98.8391 900.976 L98.8391 909.124 L94.1863 909.124 L94.1863 900.976 L78.5846 900.976 L78.5846 896.462 L92.9595 874.564 Z" fill="#000000" fill-rule="evenodd" fill-opacity="1"></path><path clip-path="url(#clip600)" d="M111.501 903.244 L116.385 903.244 L116.385 909.124 L111.501 909.124 L111.501 903.244 Z" fill="#000000" fill-rule="evenodd" fill-opacity="1"></path><path clip-path="url(#clip600)" d="M137.149 889.98 Q134.001 889.98 132.149 892.133 Q130.32 894.286 130.32 898.036 Q130.32 901.763 132.149 903.939 Q134.001 906.091 137.149 906.091 Q140.297 906.091 142.126 903.939 Q143.978 901.763 143.978 898.036 Q143.978 894.286 142.126 892.133 Q140.297 889.98 137.149 889.98 M146.431 875.328 L146.431 879.587 Q144.672 878.754 142.867 878.314 Q141.084 877.874 139.325 877.874 Q134.695 877.874 132.242 880.999 Q129.811 884.124 129.464 890.443 Q130.83 888.429 132.89 887.365 Q134.95 886.277 137.427 886.277 Q142.635 886.277 145.644 889.448 Q148.677 892.596 148.677 898.036 Q148.677 903.36 145.529 906.577 Q142.381 909.795 137.149 909.795 Q131.154 909.795 127.982 905.212 Q124.811 900.605 124.811 891.878 Q124.811 883.684 128.7 878.823 Q132.589 873.939 139.14 873.939 Q140.899 873.939 142.681 874.286 Q144.487 874.633 146.431 875.328 Z" fill="#000000" fill-rule="evenodd" fill-opacity="1"></path><path clip-path="url(#clip600)" d="M53.0523 704.222 L60.6911 704.222 L60.6911 677.856 L52.381 679.523 L52.381 675.264 L60.6449 673.597 L65.3208 673.597 L65.3208 704.222 L72.9596 704.222 L72.9596 708.157 L53.0523 708.157 L53.0523 704.222 Z" fill="#000000" fill-rule="evenodd" fill-opacity="1"></path><path clip-path="url(#clip600)" d="M95.2511 677.671 L83.4457 696.12 L95.2511 696.12 L95.2511 677.671 M94.0243 673.597 L99.9039 673.597 L99.9039 696.12 L104.834 696.12 L104.834 700.009 L99.9039 700.009 L99.9039 708.157 L95.2511 708.157 L95.2511 700.009 L79.6494 700.009 L79.6494 695.495 L94.0243 673.597 Z" fill="#000000" fill-rule="evenodd" fill-opacity="1"></path><path clip-path="url(#clip600)" d="M112.566 702.277 L117.45 702.277 L117.45 708.157 L112.566 708.157 L112.566 702.277 Z" fill="#000000" fill-rule="evenodd" fill-opacity="1"></path><path clip-path="url(#clip600)" d="M126.455 673.597 L148.677 673.597 L148.677 675.588 L136.131 708.157 L131.246 708.157 L143.052 677.532 L126.455 677.532 L126.455 673.597 Z" fill="#000000" fill-rule="evenodd" fill-opacity="1"></path><path clip-path="url(#clip600)" d="M52.2421 503.255 L59.881 503.255 L59.881 476.889 L51.5708 478.556 L51.5708 474.297 L59.8347 472.63 L64.5106 472.63 L64.5106 503.255 L72.1494 503.255 L72.1494 507.19 L52.2421 507.19 L52.2421 503.255 Z" fill="#000000" fill-rule="evenodd" fill-opacity="1"></path><path clip-path="url(#clip600)" d="M94.441 476.704 L82.6355 495.153 L94.441 495.153 L94.441 476.704 M93.2141 472.63 L99.0937 472.63 L99.0937 495.153 L104.024 495.153 L104.024 499.042 L99.0937 499.042 L99.0937 507.19 L94.441 507.19 L94.441 499.042 L78.8392 499.042 L78.8392 494.528 L93.2141 472.63 Z" fill="#000000" fill-rule="evenodd" fill-opacity="1"></path><path clip-path="url(#clip600)" d="M111.756 501.31 L116.64 501.31 L116.64 507.19 L111.756 507.19 L111.756 501.31 Z" fill="#000000" fill-rule="evenodd" fill-opacity="1"></path><path clip-path="url(#clip600)" d="M136.825 490.778 Q133.492 490.778 131.57 492.56 Q129.672 494.343 129.672 497.468 Q129.672 500.593 131.57 502.375 Q133.492 504.158 136.825 504.158 Q140.158 504.158 142.08 502.375 Q144.001 500.57 144.001 497.468 Q144.001 494.343 142.08 492.56 Q140.181 490.778 136.825 490.778 M132.149 488.787 Q129.14 488.047 127.45 485.986 Q125.783 483.926 125.783 480.963 Q125.783 476.82 128.723 474.412 Q131.686 472.005 136.825 472.005 Q141.987 472.005 144.927 474.412 Q147.867 476.82 147.867 480.963 Q147.867 483.926 146.177 485.986 Q144.51 488.047 141.524 488.787 Q144.904 489.574 146.779 491.866 Q148.677 494.158 148.677 497.468 Q148.677 502.491 145.598 505.176 Q142.543 507.861 136.825 507.861 Q131.107 507.861 128.029 505.176 Q124.973 502.491 124.973 497.468 Q124.973 494.158 126.871 491.866 Q128.769 489.574 132.149 488.787 M130.436 481.403 Q130.436 484.088 132.103 485.593 Q133.793 487.098 136.825 487.098 Q139.834 487.098 141.524 485.593 Q143.237 484.088 143.237 481.403 Q143.237 478.718 141.524 477.213 Q139.834 475.709 136.825 475.709 Q133.793 475.709 132.103 477.213 Q130.436 478.718 130.436 481.403 Z" fill="#000000" fill-rule="evenodd" fill-opacity="1"></path><path clip-path="url(#clip600)" d="M52.3347 302.288 L59.9736 302.288 L59.9736 275.922 L51.6634 277.589 L51.6634 273.33 L59.9273 271.663 L64.6032 271.663 L64.6032 302.288 L72.242 302.288 L72.242 306.223 L52.3347 306.223 L52.3347 302.288 Z" fill="#000000" fill-rule="evenodd" fill-opacity="1"></path><path clip-path="url(#clip600)" d="M94.5336 275.737 L82.7281 294.186 L94.5336 294.186 L94.5336 275.737 M93.3067 271.663 L99.1863 271.663 L99.1863 294.186 L104.117 294.186 L104.117 298.075 L99.1863 298.075 L99.1863 306.223 L94.5336 306.223 L94.5336 298.075 L78.9318 298.075 L78.9318 293.561 L93.3067 271.663 Z" fill="#000000" fill-rule="evenodd" fill-opacity="1"></path><path clip-path="url(#clip600)" d="M111.848 300.344 L116.733 300.344 L116.733 306.223 L111.848 306.223 L111.848 300.344 Z" fill="#000000" fill-rule="evenodd" fill-opacity="1"></path><path clip-path="url(#clip600)" d="M127.057 305.506 L127.057 301.246 Q128.816 302.08 130.621 302.519 Q132.427 302.959 134.163 302.959 Q138.793 302.959 141.223 299.857 Q143.677 296.732 144.024 290.39 Q142.681 292.381 140.621 293.445 Q138.561 294.51 136.061 294.51 Q130.876 294.51 127.844 291.385 Q124.834 288.237 124.834 282.797 Q124.834 277.473 127.982 274.256 Q131.131 271.038 136.362 271.038 Q142.357 271.038 145.506 275.645 Q148.677 280.228 148.677 288.978 Q148.677 297.149 144.788 302.033 Q140.922 306.894 134.371 306.894 Q132.612 306.894 130.807 306.547 Q129.001 306.2 127.057 305.506 M136.362 290.853 Q139.51 290.853 141.339 288.7 Q143.191 286.547 143.191 282.797 Q143.191 279.071 141.339 276.918 Q139.51 274.742 136.362 274.742 Q133.214 274.742 131.362 276.918 Q129.533 279.071 129.533 282.797 Q129.533 286.547 131.362 288.7 Q133.214 290.853 136.362 290.853 Z" fill="#000000" fill-rule="evenodd" fill-opacity="1"></path><path clip-path="url(#clip600)" d="M52.1495 101.321 L59.7884 101.321 L59.7884 74.9555 L51.4782 76.6222 L51.4782 72.3629 L59.7421 70.6963 L64.418 70.6963 L64.418 101.321 L72.0568 101.321 L72.0568 105.256 L52.1495 105.256 L52.1495 101.321 Z" fill="#000000" fill-rule="evenodd" fill-opacity="1"></path><path clip-path="url(#clip600)" d="M81.5475 70.6963 L99.9039 70.6963 L99.9039 74.6314 L85.8299 74.6314 L85.8299 83.1036 Q86.8484 82.7564 87.8669 82.5944 Q88.8854 82.4092 89.904 82.4092 Q95.691 82.4092 99.0706 85.5805 Q102.45 88.7517 102.45 94.1684 Q102.45 99.747 98.978 102.849 Q95.5058 105.928 89.1864 105.928 Q87.0105 105.928 84.7419 105.557 Q82.4966 105.187 80.0892 104.446 L80.0892 99.747 Q82.1725 100.881 84.3947 101.437 Q86.6169 101.992 89.0938 101.992 Q93.0984 101.992 95.4363 99.8859 Q97.7743 97.7795 97.7743 94.1684 Q97.7743 90.5573 95.4363 88.4508 Q93.0984 86.3443 89.0938 86.3443 Q87.2188 86.3443 85.3438 86.761 Q83.492 87.1777 81.5475 88.0573 L81.5475 70.6963 Z" fill="#000000" fill-rule="evenodd" fill-opacity="1"></path><path clip-path="url(#clip600)" d="M111.663 99.3767 L116.547 99.3767 L116.547 105.256 L111.663 105.256 L111.663 99.3767 Z" fill="#000000" fill-rule="evenodd" fill-opacity="1"></path><path clip-path="url(#clip600)" d="M136.732 73.775 Q133.121 73.775 131.293 77.3398 Q129.487 80.8814 129.487 88.011 Q129.487 95.1174 131.293 98.6822 Q133.121 102.224 136.732 102.224 Q140.367 102.224 142.172 98.6822 Q144.001 95.1174 144.001 88.011 Q144.001 80.8814 142.172 77.3398 Q140.367 73.775 136.732 73.775 M136.732 70.0713 Q142.543 70.0713 145.598 74.6777 Q148.677 79.261 148.677 88.011 Q148.677 96.7378 145.598 101.344 Q142.543 105.928 136.732 105.928 Q130.922 105.928 127.844 101.344 Q124.788 96.7378 124.788 88.011 Q124.788 79.261 127.844 74.6777 Q130.922 70.0713 136.732 70.0713 Z" fill="#000000" fill-rule="evenodd" fill-opacity="1"></path><polyline clip-path="url(#clip602)" style="stroke:#009af9; stroke-linecap:round; stroke-linejoin:round; stroke-width:4; stroke-opacity:1; fill:none" points="
  246.038,87.9763 256.264,1405.03 266.491,1404 276.718,1391.89 286.945,1409.14 297.171,1397.44 307.398,1411.98 317.625,1397.04 327.852,1411.83 338.079,1398.82 
  348.305,1410.14 358.532,1402.09 368.759,1407.25 378.986,1405.77 389.213,1403.63 399.439,1409.02 409.666,1399.99 419.893,1411.27 430.12,1397.3 440.346,1412.13 
  450.573,1397.32 460.8,1411.48 471.027,1399.68 481.254,1409.41 491.48,1403.16 501.707,1406.24 511.934,1406.79 522.161,1402.53 532.388,1409.8 542.614,1399.05 
  552.841,1411.67 563.068,1396.98 573.295,1412.1 583.522,1397.82 593.748,1411.01 603.975,1400.63 614.202,1408.57 624.429,1404.25 634.655,1405.18 644.882,1407.76 
  655.109,1401.45 665.336,1410.48 675.563,1398.22 685.789,1411.95 696.016,1396.95 706.243,1411.93 716.47,1398.5 726.697,1410.43 736.923,1401.65 747.15,1407.66 
  757.377,1405.32 767.604,1404.09 777.831,1408.67 788.057,1400.41 798.284,1411.06 808.511,1397.53 818.738,1412.1 828.964,1397.16 839.191,1411.64 849.418,1399.3 
  859.645,1409.73 869.872,1402.71 880.098,1406.67 890.325,1406.37 900.552,1402.99 910.779,1409.49 921.006,1399.44 931.232,1411.52 941.459,1397.08 951.686,1412.13 
  961.913,1397.59 972.139,1411.22 982.366,1400.22 992.593,1408.94 1002.82,1403.79 1013.05,1405.63 1023.27,1407.36 1033.5,1401.9 1043.73,1410.21 1053.95,1398.56 
  1064.18,1411.85 1074.41,1396.93 1084.63,1412.02 1094.86,1398.2 1105.09,1410.68 1115.31,1401.21 1125.54,1408.05 1135.77,1404.88 1145.99,1404.55 1156.22,1408.3 
  1166.45,1400.84 1176.68,1410.83 1186.9,1397.8 1197.13,1412.06 1207.36,1397.04 1217.58,1411.78 1227.81,1398.95 1238.04,1410.03 1248.26,1402.26 1258.49,1407.09 
  1268.72,1405.93 1278.94,1403.45 1289.17,1409.16 1299.4,1399.83 1309.62,1411.34 1319.85,1397.23 1330.08,1412.13 1340.3,1397.39 1350.53,1411.41 1360.76,1399.82 
  1370.98,1409.28 1381.21,1403.34 1391.44,1406.07 1401.66,1406.95 1411.89,1402.35 1422.12,1409.92 1432.34,1398.91 1442.57,1411.72 1452.8,1396.96 1463.03,1412.08 
  1473.25,1397.92 1483.48,1410.92 1493.71,1400.79 1503.93,1408.43 1514.16,1404.42 1524.39,1405.01 1534.61,1407.92 1544.84,1401.28 1555.07,1410.58 1565.29,1398.1 
  1575.52,1411.98 1585.75,1396.97 1595.97,1411.89 1606.2,1398.62 1616.43,1410.32 1626.65,1401.82 1636.88,1407.5 1647.11,1405.49 1657.33,1403.91 1667.56,1408.8 
  1677.79,1400.25 1688.01,1411.14 1698.24,1397.44 1708.47,1412.12 1718.7,1397.22 1728.92,1411.58 1739.15,1399.44 1749.38,1409.61 1759.6,1402.88 1769.83,1406.51 
  1780.06,1406.53 1790.28,1402.82 1800.51,1409.61 1810.74,1399.29 1820.96,1411.58 1831.19,1397.04 1841.42,1412.12 1851.64,1397.67 1861.87,1411.14 1872.1,1400.37 
  1882.32,1408.8 1892.55,1403.96 1902.78,1405.46 1913,1407.51 1923.23,1401.73 1933.46,1410.32 1943.68,1398.43 1953.91,1411.89 1964.14,1396.93 1974.36,1411.99 
  1984.59,1398.3 1994.82,1410.59 2005.05,1401.38 2015.27,1407.91 2025.5,1405.04 2035.73,1404.38 2045.95,1408.44 2056.18,1400.68 2066.41,1410.92 2076.63,1397.69 
  2086.86,1412.08 2097.09,1397.08 2107.31,1411.73 2117.54,1399.08 2127.77,1409.92 2137.99,1402.43 2148.22,1406.94 2158.45,1406.1 2168.67,1403.28 2178.9,1409.28 
  2189.13,1399.68 2199.35,1411.41 2209.58,1397.17 2219.81,1412.13 2230.03,1397.46 2240.26,1411.34 2250.49,1399.97 2260.71,1409.15 2270.94,1403.51 2281.17,1405.91 
  2291.4,1403.92 
  "></polyline>
<polyline clip-path="url(#clip602)" style="stroke:#e26f46; stroke-linecap:round; stroke-linejoin:round; stroke-width:4; stroke-opacity:1; fill:none" points="
  246.038,87.9763 256.264,415.831 266.491,663.33 276.718,850.143 286.945,991.187 297.171,1097.64 307.398,1178.01 317.625,1238.71 327.852,1284.45 338.079,1319.02 
  348.305,1345.18 358.532,1364.85 368.759,1379.65 378.986,1390.93 389.213,1399.47 399.439,1405.84 409.666,1410.59 419.893,1414.2 430.12,1417.02 440.346,1419.16 
  450.573,1420.72 460.8,1421.84 471.027,1422.67 481.254,1423.35 491.48,1423.92 501.707,1424.36 511.934,1424.66 522.161,1424.85 532.388,1424.96 542.614,1425.03 
  552.841,1425.12 563.068,1425.23 573.295,1425.33 583.522,1425.4 593.748,1425.45 603.975,1425.46 614.202,1425.45 624.429,1425.43 634.655,1425.4 644.882,1425.39 
  655.109,1425.42 665.336,1425.46 675.563,1425.51 685.789,1425.55 696.016,1425.58 706.243,1425.59 716.47,1425.58 726.697,1425.55 736.923,1425.51 747.15,1425.46 
  757.377,1425.41 767.604,1425.37 777.831,1425.37 788.057,1425.43 798.284,1425.56 808.511,1425.72 818.738,1425.89 828.964,1426.02 839.191,1426.11 849.418,1426.14 
  859.645,1426.1 869.872,1426 880.098,1425.83 890.325,1425.62 900.552,1425.38 910.779,1425.15 921.006,1424.95 931.232,1424.82 941.459,1424.82 951.686,1425.06 
  961.913,1425.79 972.139,1426.82 982.366,1427.92 992.593,1428.91 1002.82,1429.63 1013.05,1430 1023.27,1429.95 1033.5,1429.45 1043.73,1428.54 1053.95,1427.28 
  1064.18,1425.77 1074.41,1424.15 1084.63,1422.62 1094.86,1421.4 1105.09,1420.76 1115.31,1421.01 1125.54,1422.8 1135.77,1426.47 1145.99,1430.92 1156.22,1435.2 
  1166.45,1438.57 1176.68,1440.49 1186.9,1440.65 1197.13,1438.93 1207.36,1435.46 1217.58,1430.53 1227.81,1424.69 1238.04,1418.67 1248.26,1413.41 1258.49,1410.1 
  1268.72,1410.09 1278.94,1414.65 1289.17,1422.38 1299.4,1430.95 1309.62,1438.5 1319.85,1443.71 1330.08,1445.72 1340.3,1444.18 1350.53,1439.24 1360.76,1431.55 
  1370.98,1422.24 1381.21,1412.95 1391.44,1405.8 1401.66,1403.44 1411.89,1408.24 1422.12,1416.54 1432.34,1425.32 1442.57,1432.79 1452.8,1437.68 1463.03,1439.27 
  1473.25,1437.4 1483.48,1432.43 1493.71,1425.28 1503.93,1417.41 1514.16,1410.83 1524.39,1408.1 1534.61,1411.6 1544.84,1417.74 1555.07,1424.07 1565.29,1429.34 
  1575.52,1432.7 1585.75,1433.7 1595.97,1432.27 1606.2,1428.75 1616.43,1423.88 1626.65,1418.78 1636.88,1414.98 1647.11,1414.41 1657.33,1417.74 1667.56,1422.04 
  1677.79,1426.19 1688.01,1429.41 1698.24,1431.21 1708.47,1431.35 1718.7,1429.86 1728.92,1427.05 1739.15,1423.49 1749.38,1420.02 1759.6,1417.75 1769.83,1418.05 
  1780.06,1420.77 1790.28,1424.08 1800.51,1427.21 1810.74,1429.57 1820.96,1430.79 1831.19,1430.71 1841.42,1429.36 1851.64,1426.97 1861.87,1424 1872.1,1421.09 
  1882.32,1419.1 1892.55,1419.08 1902.78,1421.3 1913,1424.26 1923.23,1427.19 1933.46,1429.53 1943.68,1430.89 1953.91,1431.05 1964.14,1430.01 1974.36,1427.92 
  1984.59,1425.13 1994.82,1422.19 2005.05,1419.79 2015.27,1418.85 2025.5,1419.76 2035.73,1420.65 2045.95,1421.49 2056.18,1422.28 2066.41,1423.02 2076.63,1423.7 
  2086.86,1424.34 2097.09,1424.92 2107.31,1425.45 2117.54,1425.93 2127.77,1426.36 2137.99,1426.74 2148.22,1427.07 2158.45,1427.34 2168.67,1427.57 2178.9,1427.74 
  2189.13,1427.87 2199.35,1427.94 2209.58,1427.96 2219.81,1427.93 2230.03,1427.85 2240.26,1427.71 2250.49,1427.53 2260.71,1427.29 2270.94,1427.01 2281.17,1426.67 
  2291.4,1426.38 
  "></polyline>
<path clip-path="url(#clip600)" d="
M2011.25 250.738 L2280.49 250.738 L2280.49 95.2176 L2011.25 95.2176  Z
  " fill="#ffffff" fill-rule="evenodd" fill-opacity="1"></path>
<polyline clip-path="url(#clip600)" style="stroke:#000000; stroke-linecap:round; stroke-linejoin:round; stroke-width:4; stroke-opacity:1; fill:none" points="
  2011.25,250.738 2280.49,250.738 2280.49,95.2176 2011.25,95.2176 2011.25,250.738 
  "></polyline>
<polyline clip-path="url(#clip600)" style="stroke:#009af9; stroke-linecap:round; stroke-linejoin:round; stroke-width:4; stroke-opacity:1; fill:none" points="
  2035.34,147.058 2179.88,147.058 
  "></polyline>
<path clip-path="url(#clip600)" d="M2217.81 166.745 Q2216 171.375 2214.29 172.787 Q2212.58 174.199 2209.71 174.199 L2206.3 174.199 L2206.3 170.634 L2208.8 170.634 Q2210.56 170.634 2211.54 169.8 Q2212.51 168.967 2213.69 165.865 L2214.45 163.921 L2203.97 138.412 L2208.48 138.412 L2216.58 158.689 L2224.68 138.412 L2229.2 138.412 L2217.81 166.745 Z" fill="#000000" fill-rule="evenodd" fill-opacity="1"></path><path clip-path="url(#clip600)" d="M2236.49 160.402 L2244.13 160.402 L2244.13 134.037 L2235.82 135.703 L2235.82 131.444 L2244.08 129.778 L2248.76 129.778 L2248.76 160.402 L2256.4 160.402 L2256.4 164.338 L2236.49 164.338 L2236.49 160.402 Z" fill="#000000" fill-rule="evenodd" fill-opacity="1"></path><polyline clip-path="url(#clip600)" style="stroke:#e26f46; stroke-linecap:round; stroke-linejoin:round; stroke-width:4; stroke-opacity:1; fill:none" points="
  2035.34,198.898 2179.88,198.898 
  "></polyline>
<path clip-path="url(#clip600)" d="M2217.81 218.585 Q2216 223.215 2214.29 224.627 Q2212.58 226.039 2209.71 226.039 L2206.3 226.039 L2206.3 222.474 L2208.8 222.474 Q2210.56 222.474 2211.54 221.64 Q2212.51 220.807 2213.69 217.705 L2214.45 215.761 L2203.97 190.252 L2208.48 190.252 L2216.58 210.529 L2224.68 190.252 L2229.2 190.252 L2217.81 218.585 Z" fill="#000000" fill-rule="evenodd" fill-opacity="1"></path><path clip-path="url(#clip600)" d="M2239.71 212.242 L2256.03 212.242 L2256.03 216.178 L2234.08 216.178 L2234.08 212.242 Q2236.74 209.488 2241.33 204.858 Q2245.93 200.205 2247.11 198.863 Q2249.36 196.34 2250.24 194.604 Q2251.14 192.844 2251.14 191.155 Q2251.14 188.4 2249.2 186.664 Q2247.28 184.928 2244.17 184.928 Q2241.98 184.928 2239.52 185.692 Q2237.09 186.455 2234.31 188.006 L2234.31 183.284 Q2237.14 182.15 2239.59 181.571 Q2242.05 180.993 2244.08 180.993 Q2249.45 180.993 2252.65 183.678 Q2255.84 186.363 2255.84 190.854 Q2255.84 192.983 2255.03 194.905 Q2254.24 196.803 2252.14 199.395 Q2251.56 200.067 2248.46 203.284 Q2245.36 206.479 2239.71 212.242 Z" fill="#000000" fill-rule="evenodd" fill-opacity="1"></path></svg>